<svg xmlns="http://www.w3.org/2000/svg" width="1400" height="1210" viewBox="0 0 1400 1210" font-family="Arial, Helvetica, sans-serif">
  <rect x="0" y="0" width="1400" height="1210" fill="#ffffff"/>

  <!-- ================= RELATIONSHIPS ================= -->
  <g fill="none" stroke="#000000" stroke-width="1">
    <!-- R1 Feedback - Member (aggregation) -->
    <path d="M373,150 C450,150 480,181 540,181"/>
    <!-- R2 Member - Attendance (composition) -->
    <path d="M700,181 C760,150 790,128 840,128"/>
    <!-- R3 Membership - Member (composition) -->
    <path d="M300,292 C300,272 460,272 540,272"/>
    <!-- R4 Member - Schedule (aggregation) -->
    <path d="M748,236 C840,236 912,290 912,348"/>
    <!-- R5 Membership - Package (Membership bottom=468) -->
    <path d="M255,468 L255,577"/>
    <!-- R6 Member - User (composition) (Member bottom=470) -->
    <path d="M635,470 C620,548 545,630 522,670"/>
    <!-- R7 Member - Trainer (Member bottom=470) -->
    <path d="M720,470 C724,510 726,578 727,657"/>
    <!-- R8 User - Trainer (composition) -->
    <path d="M522,762 C560,766 590,770 620,772"/>
    <!-- R9 Schedule - Supplement -->
    <path d="M1058,405 C1160,405 1265,410 1265,378"/>
    <!-- R10 Schedule - Workout -->
    <path d="M1058,568 C1100,568 1120,592 1158,600"/>
    <!-- R11 Workout - Equipment -->
    <path d="M1250,712 C1250,762 1180,795 1112,795"/>
  </g>

  <!-- ================= DIAMONDS ================= -->
  <!-- open (aggregation) : white fill -->
  <polygon points="540,175 550,181 540,187 530,181" fill="#ffffff" stroke="#000" stroke-width="1"/>
  <polygon points="912,348 921,354 912,360 903,354" fill="#ffffff" stroke="#000" stroke-width="1"/>
  <!-- filled (composition) : black fill -->
  <polygon points="700,175 710,181 700,187 690,181" fill="#000000" stroke="#000" stroke-width="1"/>
  <polygon points="540,266 550,272 540,278 530,272" fill="#000000" stroke="#000" stroke-width="1"/>
  <polygon points="635,464 645,470 635,476 625,470" fill="#000000" stroke="#000" stroke-width="1"/>
  <polygon points="620,766 630,772 620,778 610,772" fill="#000000" stroke="#000" stroke-width="1"/>

  <!-- ================= CARDINALITY LABELS ================= -->
  <g font-size="13" fill="#000">
    <text x="382" y="146">0.*</text>
    <text x="562" y="180">1</text>
    <text x="714" y="180">1</text>
    <text x="800" y="132">0.*</text>
    <text x="335" y="268">1,*</text>
    <text x="522" y="284">*</text>
    <text x="758" y="252">0.*</text>
    <text x="928" y="362">1,*</text>
    <text x="243" y="472">1</text>
    <text x="200" y="560">1</text>
    <text x="648" y="474">1</text>
    <text x="552" y="668">1</text>
    <text x="712" y="474">1</text>
    <text x="712" y="648">1</text>
    <text x="535" y="758">1</text>
    <text x="596" y="760">1</text>
    <text x="1078" y="400">0.*</text>
    <text x="1292" y="396">0.*</text>
    <text x="1112" y="552">1,*</text>
    <text x="1072" y="600">0.*</text>
    <text x="1284" y="742">0.*</text>
    <text x="1122" y="792">0.*</text>
  </g>

  <!-- ================= ENTITIES ================= -->
  <g stroke="#000" stroke-width="1" fill="#ffffff">

    <!-- Feedback -->
    <rect x="178" y="118" width="195" height="134"/>
    <line x1="178" y1="144" x2="373" y2="144"/>
    <line x1="178" y1="228" x2="373" y2="228"/>

    <!-- Attendance (h=140) -->
    <rect x="840" y="40" width="210" height="140"/>
    <line x1="840" y1="66" x2="1050" y2="66"/>

    <!-- Member (h=272) -->
    <rect x="558" y="198" width="190" height="272"/>
    <line x1="558" y1="224" x2="748" y2="224"/>

    <!-- Supplement -->
    <rect x="1168" y="262" width="194" height="116"/>
    <line x1="1168" y1="288" x2="1362" y2="288"/>
    <line x1="1168" y1="352" x2="1362" y2="352"/>

    <!-- Membership (h=176) -->
    <rect x="188" y="292" width="182" height="176"/>
    <line x1="188" y1="318" x2="370" y2="318"/>

    <!-- Schedule -->
    <rect x="862" y="358" width="196" height="254"/>
    <line x1="862" y1="384" x2="1058" y2="384"/>
    <line x1="862" y1="590" x2="1058" y2="590"/>

    <!-- Package (h=176) -->
    <rect x="120" y="577" width="195" height="176"/>
    <line x1="120" y1="603" x2="315" y2="603"/>

    <!-- User (h=248) -->
    <rect x="338" y="626" width="184" height="248"/>
    <line x1="338" y1="652" x2="522" y2="652"/>

    <!-- Trainer (h=194) -->
    <rect x="635" y="657" width="185" height="194"/>
    <line x1="635" y1="683" x2="820" y2="683"/>

    <!-- Workout -->
    <rect x="1158" y="556" width="194" height="156"/>
    <line x1="1158" y1="582" x2="1352" y2="582"/>
    <line x1="1158" y1="662" x2="1352" y2="662"/>

    <!-- Equipment -->
    <rect x="928" y="730" width="184" height="132"/>
    <line x1="928" y1="756" x2="1112" y2="756"/>
    <line x1="928" y1="818" x2="1112" y2="818"/>
  </g>

  <!-- ================= TITLES ================= -->
  <g font-size="13" font-weight="bold" fill="#000" text-anchor="middle">
    <text x="275" y="136">Feedback</text>
    <text x="945" y="58">Attendance</text>
    <text x="653" y="216">Member</text>
    <text x="1265" y="280">Supplement</text>
    <text x="279" y="310">Membership</text>
    <text x="960" y="376">Schedule</text>
    <text x="217" y="595">Package</text>
    <text x="430" y="644">User</text>
    <text x="727" y="675">Trainer</text>
    <text x="1255" y="574">Workout</text>
    <text x="1020" y="748">Equipment</text>
  </g>

  <!-- ================= ATTRIBUTES ================= -->
  <g font-size="12" fill="#000">
    <!-- Feedback -->
    <text x="188" y="160">id</text>
    <text x="188" y="178">member_id</text>
    <text x="188" y="196">note</text>
    <text x="188" y="214">subject</text>

    <!-- Attendance (updated) -->
    <text x="850" y="83">id</text>
    <text x="850" y="101">member_id (FK)</text>
    <text x="850" y="119">check_in</text>
    <text x="850" y="137">check_out</text>
    <text x="850" y="155">notes</text>

    <!-- Member (updated) -->
    <text x="568" y="242">id</text>
    <text x="568" y="260">user_id (FK)</text>
    <text x="568" y="278">contact_no</text>
    <text x="568" y="296">address</text>
    <text x="568" y="314">join_date</text>
    <text x="568" y="332">nic</text>
    <text x="568" y="350">date_of_birth</text>
    <text x="568" y="368">gender</text>
    <text x="568" y="386">emergency_contact_name</text>
    <text x="568" y="404">emergency_contact_no</text>
    <text x="568" y="422">notes</text>
    <text x="568" y="440">is_archived</text>

    <!-- Supplement -->
    <text x="1178" y="306">id</text>
    <text x="1178" y="324">name</text>
    <text x="1178" y="342">description</text>

    <!-- Membership (updated) -->
    <text x="198" y="336">id</text>
    <text x="198" y="354">member_id (FK)</text>
    <text x="198" y="372">package_id (FK)</text>
    <text x="198" y="390">start_date</text>
    <text x="198" y="408">end_date</text>
    <text x="198" y="426">status</text>
    <text x="198" y="444">notes</text>

    <!-- Schedule -->
    <text x="872" y="402">id</text>
    <text x="872" y="420">member_id</text>
    <text x="872" y="438">trainer_id</text>
    <text x="872" y="456">start_date</text>
    <text x="872" y="474">end_date</text>
    <text x="872" y="492">note</text>
    <text x="872" y="510">workout_id</text>
    <text x="872" y="528">supplement_id</text>
    <text x="872" y="546">reps_no</text>
    <text x="872" y="564">sets_no</text>
    <text x="872" y="582">day</text>

    <!-- Package (updated) -->
    <text x="130" y="621">id</text>
    <text x="130" y="639">name</text>
    <text x="130" y="657">duration_months</text>
    <text x="130" y="675">price</text>
    <text x="130" y="693">description</text>
    <text x="130" y="711">is_active</text>
    <text x="130" y="729">is_archived</text>

    <!-- User (updated) -->
    <text x="348" y="670">id</text>
    <text x="348" y="688">username</text>
    <text x="348" y="706">email</text>
    <text x="348" y="724">password_hash</text>
    <text x="348" y="742">first_name</text>
    <text x="348" y="760">last_name</text>
    <text x="348" y="778">phone</text>
    <text x="348" y="796">role</text>
    <text x="348" y="814">is_active</text>
    <text x="348" y="832">is_archived</text>
    <text x="348" y="850">last_login</text>

    <!-- Trainer (updated) -->
    <text x="645" y="701">id</text>
    <text x="645" y="719">user_id (FK)</text>
    <text x="645" y="737">specialization</text>
    <text x="645" y="755">bio</text>
    <text x="645" y="773">experience_years</text>
    <text x="645" y="791">certifications</text>
    <text x="645" y="809">contact_no</text>
    <text x="645" y="827">is_archived</text>

    <!-- Workout -->
    <text x="1168" y="600">id</text>
    <text x="1168" y="618">name</text>
    <text x="1168" y="636">description</text>
    <text x="1168" y="654">equipment_id</text>

    <!-- Equipment -->
    <text x="938" y="774">id</text>
    <text x="938" y="792">name</text>
    <text x="938" y="810">description</text>
  </g>

  <!-- ================= PAYMENT ================= -->
  <g fill="none" stroke="#000000" stroke-width="1">
    <!-- Member 1 - 0..* Payment (drops below User bottom y=874, then goes right of User) -->
    <path d="M280,835 L280,882 L590,882 L590,470"/>
    <!-- Membership 1 - 0..* Payment -->
    <path d="M90,880 L55,880 L55,385 L188,385"/>
    <!-- User 1 - 0..* Payment (created_by, enters User from left edge) -->
    <path d="M200,835 L200,762 L338,762"/>
  </g>

  <g stroke="#000" stroke-width="1" fill="#ffffff">
    <!-- Payment (h=275) -->
    <rect x="90" y="835" width="215" height="275"/>
    <line x1="90" y1="861" x2="305" y2="861"/>
    <line x1="90" y1="1085" x2="305" y2="1085"/>
  </g>

  <!-- filled diamonds -->
  <polygon points="590,464 599,470 590,476 581,470" fill="#000000" stroke="#000" stroke-width="1"/>
  <polygon points="170,385 179,379 188,385 179,391" fill="#000000" stroke="#000" stroke-width="1"/>

  <g font-size="13" font-weight="bold" fill="#000" text-anchor="middle">
    <text x="197" y="853">Payment</text>
  </g>

  <g font-size="12" fill="#000">
    <text x="100" y="877">id</text>
    <text x="100" y="895">member_id (FK)</text>
    <text x="100" y="913">membership_id (FK)</text>
    <text x="100" y="931">amount</text>
    <text x="100" y="949">method</text>
    <text x="100" y="967">payment_date</text>
    <text x="100" y="985">reference_no</text>
    <text x="100" y="1003">notes</text>
    <text x="100" y="1021">created_by_id (FK)</text>
    <text x="100" y="1039">updated_by_id (FK)</text>
    <text x="100" y="1057">created_at</text>
    <text x="100" y="1075">updated_at</text>
  </g>

  <g font-size="13" fill="#000">
    <text x="596" y="456">1</text>
    <text x="286" y="878">0.*</text>
    <text x="163" y="378">1</text>
    <text x="60" y="876">0.*</text>
    <text x="322" y="757">1</text>
    <text x="210" y="843">0.*</text>
  </g>
</svg>