<svg xmlns="http://www.w3.org/2000/svg" width="1400" height="1600" viewBox="0 0 1400 1600" font-family="Arial, Helvetica, sans-serif">

  <rect width="1400" height="1600" fill="white"/>

  <!-- ============================================================
       ADMINISTRATOR  (top-left)
  ============================================================ -->
  <g transform="translate(0,0)">
    <rect x="0" y="0" width="700" height="800" fill="white"/>
    <!-- Header -->
    <rect x="0" y="0" width="700" height="45" fill="black"/>
    <text x="350" y="30" font-size="18" font-weight="bold" fill="white" text-anchor="middle">Administrator</text>

    <!-- Actor stick figure -->
    <g stroke="black" stroke-width="2">
      <circle cx="55" cy="383" r="14" fill="white"/>
      <line x1="55" y1="397" x2="55" y2="427"/>
      <line x1="35" y1="411" x2="75" y2="411"/>
      <line x1="55" y1="427" x2="41" y2="455"/>
      <line x1="55" y1="427" x2="69" y2="455"/>
    </g>
    <text x="55" y="472" font-size="12" fill="black" text-anchor="middle" font-weight="bold">Admin</text>

    <!-- Use case ellipses -->
    <g fill="white" stroke="black" stroke-width="1.5">
      <ellipse cx="380" cy="105" rx="110" ry="22"/>
      <ellipse cx="380" cy="170" rx="110" ry="22"/>
      <ellipse cx="380" cy="235" rx="110" ry="22"/>
      <ellipse cx="380" cy="300" rx="110" ry="22"/>
      <ellipse cx="380" cy="365" rx="110" ry="22"/>
      <ellipse cx="380" cy="430" rx="110" ry="22"/>
      <ellipse cx="380" cy="495" rx="110" ry="22"/>
      <ellipse cx="380" cy="560" rx="110" ry="22"/>
      <ellipse cx="380" cy="625" rx="110" ry="22"/>
      <ellipse cx="380" cy="690" rx="110" ry="22"/>
    </g>
    <g font-size="12" fill="black" text-anchor="middle">
      <text x="380" y="109">Login / Logout</text>
      <text x="380" y="174">Change Password</text>
      <text x="380" y="239">View Dashboard</text>
      <text x="380" y="304">Manage Users</text>
      <text x="380" y="369">Manage Members</text>
      <text x="380" y="434">Manage Trainers</text>
      <text x="380" y="499">Manage Packages</text>
      <text x="380" y="564">Manage Memberships</text>
      <text x="380" y="629">Manage Payments</text>
      <text x="380" y="694">Manage Attendance</text>
    </g>

    <!-- Connection lines -->
    <g stroke="black" stroke-width="1">
      <line x1="75" y1="411" x2="270" y2="105"/>
      <line x1="75" y1="411" x2="270" y2="170"/>
      <line x1="75" y1="411" x2="270" y2="235"/>
      <line x1="75" y1="411" x2="270" y2="300"/>
      <line x1="75" y1="411" x2="270" y2="365"/>
      <line x1="75" y1="411" x2="270" y2="430"/>
      <line x1="75" y1="411" x2="270" y2="495"/>
      <line x1="75" y1="411" x2="270" y2="560"/>
      <line x1="75" y1="411" x2="270" y2="625"/>
      <line x1="75" y1="411" x2="270" y2="690"/>
    </g>
  </g>

  <!-- ============================================================
       MANAGER  (top-right)
  ============================================================ -->
  <g transform="translate(700,0)">
    <rect x="0" y="0" width="700" height="800" fill="white"/>
    <!-- Header -->
    <rect x="0" y="0" width="700" height="45" fill="black"/>
    <text x="350" y="30" font-size="18" font-weight="bold" fill="white" text-anchor="middle">Manager</text>

    <!-- Actor stick figure -->
    <g stroke="black" stroke-width="2">
      <circle cx="55" cy="393" r="14" fill="white"/>
      <line x1="55" y1="407" x2="55" y2="437"/>
      <line x1="35" y1="421" x2="75" y2="421"/>
      <line x1="55" y1="437" x2="41" y2="465"/>
      <line x1="55" y1="437" x2="69" y2="465"/>
    </g>
    <text x="55" y="482" font-size="12" fill="black" text-anchor="middle" font-weight="bold">Manager</text>

    <!-- Use case ellipses -->
    <g fill="white" stroke="black" stroke-width="1.5">
      <ellipse cx="380" cy="115" rx="110" ry="22"/>
      <ellipse cx="380" cy="188" rx="110" ry="22"/>
      <ellipse cx="380" cy="261" rx="110" ry="22"/>
      <ellipse cx="380" cy="334" rx="110" ry="22"/>
      <ellipse cx="380" cy="407" rx="110" ry="22"/>
      <ellipse cx="380" cy="480" rx="110" ry="22"/>
      <ellipse cx="380" cy="553" rx="110" ry="22"/>
      <ellipse cx="380" cy="626" rx="110" ry="22"/>
      <ellipse cx="380" cy="699" rx="110" ry="22"/>
    </g>
    <g font-size="12" fill="black" text-anchor="middle">
      <text x="380" y="119">Login / Logout</text>
      <text x="380" y="192">Change Password</text>
      <text x="380" y="265">View Dashboard</text>
      <text x="380" y="338">Manage Members</text>
      <text x="380" y="411">Manage Trainers *</text>
      <text x="380" y="484">Manage Packages</text>
      <text x="380" y="557">Manage Memberships</text>
      <text x="380" y="630">Manage Payments</text>
      <text x="380" y="703">Manage Attendance</text>
    </g>

    <!-- Note -->
    <text x="380" y="772" font-size="10" fill="black" text-anchor="middle" font-style="italic">* Cannot create trainer accounts (Admin only)</text>

    <!-- Connection lines -->
    <g stroke="black" stroke-width="1">
      <line x1="75" y1="421" x2="270" y2="115"/>
      <line x1="75" y1="421" x2="270" y2="188"/>
      <line x1="75" y1="421" x2="270" y2="261"/>
      <line x1="75" y1="421" x2="270" y2="334"/>
      <line x1="75" y1="421" x2="270" y2="407"/>
      <line x1="75" y1="421" x2="270" y2="480"/>
      <line x1="75" y1="421" x2="270" y2="553"/>
      <line x1="75" y1="421" x2="270" y2="626"/>
      <line x1="75" y1="421" x2="270" y2="699"/>
    </g>
  </g>

  <!-- ============================================================
       TRAINER  (bottom-left)
  ============================================================ -->
  <g transform="translate(0,800)">
    <rect x="0" y="0" width="700" height="800" fill="white"/>
    <!-- Header -->
    <rect x="0" y="0" width="700" height="45" fill="black"/>
    <text x="350" y="30" font-size="18" font-weight="bold" fill="white" text-anchor="middle">Trainer</text>

    <!-- Actor stick figure -->
    <g stroke="black" stroke-width="2">
      <circle cx="55" cy="278" r="14" fill="white"/>
      <line x1="55" y1="292" x2="55" y2="322"/>
      <line x1="35" y1="306" x2="75" y2="306"/>
      <line x1="55" y1="322" x2="41" y2="350"/>
      <line x1="55" y1="322" x2="69" y2="350"/>
    </g>
    <text x="55" y="367" font-size="12" fill="black" text-anchor="middle" font-weight="bold">Trainer</text>

    <!-- Use case ellipses -->
    <g fill="white" stroke="black" stroke-width="1.5">
      <ellipse cx="380" cy="130" rx="110" ry="22"/>
      <ellipse cx="380" cy="195" rx="110" ry="22"/>
      <ellipse cx="380" cy="260" rx="110" ry="22"/>
      <ellipse cx="380" cy="325" rx="110" ry="22"/>
      <ellipse cx="380" cy="390" rx="110" ry="22"/>
      <ellipse cx="380" cy="455" rx="110" ry="22"/>
    </g>
    <g font-size="12" fill="black" text-anchor="middle">
      <text x="380" y="134">Login / Logout</text>
      <text x="380" y="199">Change Password</text>
      <text x="380" y="264">View Dashboard</text>
      <text x="380" y="329">View Own Profile</text>
      <text x="380" y="394">Record Attendance (Check-in/out)</text>
      <text x="380" y="459">View All Attendance</text>
    </g>

    <!-- Connection lines -->
    <g stroke="black" stroke-width="1">
      <line x1="75" y1="306" x2="270" y2="130"/>
      <line x1="75" y1="306" x2="270" y2="195"/>
      <line x1="75" y1="306" x2="270" y2="260"/>
      <line x1="75" y1="306" x2="270" y2="325"/>
      <line x1="75" y1="306" x2="270" y2="390"/>
      <line x1="75" y1="306" x2="270" y2="455"/>
    </g>
  </g>

  <!-- ============================================================
       MEMBER  (bottom-right)
  ============================================================ -->
  <g transform="translate(700,800)">
    <rect x="0" y="0" width="700" height="800" fill="white"/>
    <!-- Header -->
    <rect x="0" y="0" width="700" height="45" fill="black"/>
    <text x="350" y="30" font-size="18" font-weight="bold" fill="white" text-anchor="middle">Member</text>

    <!-- Actor stick figure -->
    <g stroke="black" stroke-width="2">
      <circle cx="55" cy="296" r="14" fill="white"/>
      <line x1="55" y1="310" x2="55" y2="340"/>
      <line x1="35" y1="324" x2="75" y2="324"/>
      <line x1="55" y1="340" x2="41" y2="368"/>
      <line x1="55" y1="340" x2="69" y2="368"/>
    </g>
    <text x="55" y="385" font-size="12" fill="black" text-anchor="middle" font-weight="bold">Member</text>

    <!-- Use case ellipses -->
    <g fill="white" stroke="black" stroke-width="1.5">
      <ellipse cx="380" cy="115" rx="110" ry="22"/>
      <ellipse cx="380" cy="180" rx="110" ry="22"/>
      <ellipse cx="380" cy="245" rx="110" ry="22"/>
      <ellipse cx="380" cy="310" rx="110" ry="22"/>
      <ellipse cx="380" cy="375" rx="110" ry="22"/>
      <ellipse cx="380" cy="440" rx="110" ry="22"/>
      <ellipse cx="380" cy="505" rx="110" ry="22"/>
    </g>
    <g font-size="12" fill="black" text-anchor="middle">
      <text x="380" y="119">Login / Logout</text>
      <text x="380" y="184">Change Password</text>
      <text x="380" y="249">View Dashboard</text>
      <text x="380" y="314">View Own Profile</text>
      <text x="380" y="379">View Own Membership</text>
      <text x="380" y="444">View Payment History</text>
      <text x="380" y="509">View Attendance History</text>
    </g>

    <!-- Connection lines -->
    <g stroke="black" stroke-width="1">
      <line x1="75" y1="324" x2="270" y2="115"/>
      <line x1="75" y1="324" x2="270" y2="180"/>
      <line x1="75" y1="324" x2="270" y2="245"/>
      <line x1="75" y1="324" x2="270" y2="310"/>
      <line x1="75" y1="324" x2="270" y2="375"/>
      <line x1="75" y1="324" x2="270" y2="440"/>
      <line x1="75" y1="324" x2="270" y2="505"/>
    </g>
  </g>

  <!-- Section dividers -->
  <line x1="700" y1="0" x2="700" y2="1600" stroke="black" stroke-width="3"/>
  <line x1="0" y1="800" x2="1400" y2="800" stroke="black" stroke-width="3"/>

</svg>
